/* XPM */
static char *_694509809a642b3d8dea636465e91414KaGZcPzdH4I7aq1[] = {
/* columns rows colors chars-per-pixel */
"64 64 99 2 ",
"   c None",
".  c black",
"X  c #010100",
"o  c #0A0802",
"O  c #131003",
"+  c #4C410D",
"@  c #60510F",
"#  c #625311",
"$  c #6D5C12",
"%  c #746113",
"&  c #826F15",
"*  c #806D16",
"=  c #927D18",
"-  c #957D19",
";  c #947D1A",
":  c #E77D22",
">  c #E87B22",
",  c #E87B23",
"<  c #E87C22",
"1  c #E87C23",
"2  c #A48B1D",
"3  c #A88E1D",
"4  c #A98E1D",
"5  c #B79B20",
"6  c #B89C20",
"7  c #BA9D20",
"8  c #BE9F20",
"9  c #BDA020",
"0  c #BDA021",
"q  c #BEA120",
"w  c #BEA021",
"e  c #BEA121",
"r  c #BFA221",
"t  c #E88423",
"y  c #E99A25",
"u  c #EA9D25",
"i  c #EB9F26",
"p  c #C0A321",
"a  c #C1A321",
"s  c #C0A322",
"d  c #C2A422",
"f  c #C3A522",
"g  c #C4A622",
"h  c #C6A722",
"j  c #C6A723",
"k  c #C5A822",
"l  c #C6A823",
"z  c #C8A923",
"x  c #C8AA23",
"c  c #CAAB23",
"v  c #CFAF23",
"b  c #CBAC24",
"n  c #CDAD24",
"m  c #CFAF24",
"M  c #CFAF25",
"N  c #D0B024",
"B  c #D2B225",
"V  c #D3B225",
"C  c #D5B324",
"Z  c #D4B425",
"A  c #D5B425",
"S  c #D5B426",
"D  c #D6B526",
"F  c #D7B626",
"G  c #D8B725",
"H  c #DCBA26",
"J  c #DDBC27",
"K  c #DFBD27",
"L  c #E0BE27",
"P  c #E1BE27",
"I  c #EAB228",
"U  c #EBB628",
"Y  c #E0BE28",
"T  c #E1BE28",
"R  c #E2BF28",
"E  c #E3C028",
"W  c #E4C128",
"Q  c #E5C228",
"!  c #E7C429",
"~  c #E9C529",
"^  c #EBC429",
"/  c #EBC728",
"(  c #EAC629",
")  c #EBC729",
"_  c #EAC62A",
"`  c #EBC72A",
"'  c #ECC729",
"]  c #ECC72A",
"[  c #EDC72A",
"{  c #EBC829",
"}  c #EBC82A",
"|  c #EDC828",
" . c #ECC829",
".. c #EDC829",
"X. c #EDC929",
"o. c #ECC82A",
"O. c #EDC82A",
"+. c #ECC92A",
"@. c #EDC92A",
/* pixels */
"                                                                                                                                ",
"                                                                                                                                ",
"                                                                                                                                ",
"                                                                                                                                ",
"                                                                                                                                ",
"                                                                                                                                ",
"                                                                                                                                ",
"                                                                                                                                ",
"                                                                                                                                ",
"                                                                                                                                ",
"                                                                                                                                ",
"                                                                                                                                ",
"                                                                                                                                ",
"                                                                                                                                ",
"                                                                                                                                ",
"                                                                  o.                                                            ",
"                                                            o.    o.  o.                                                        ",
"                                                              o.  o.o.                                                          ",
"                                                                ' o.o.                                                          ",
"                                                                o.o.o.                                                          ",
"                                                          o.' o./ | } o.o.o.                                                    ",
"                                                        o.o.o.o.o.} o.o.o.o.o.                                                  ",
"                                                    o.o.o.o.o.o.o.o.o.o.o.o.o.o.`                                               ",
"                                                  o.o.o.o.o.o.o.o.o.o.o.o.o.o.o.` C                                             ",
"                                                ' o.o.o.o.o.o.o.o.o.o.o.o.o.o.o.o.` j                                           ",
"                                                o.o.o.o.o.o.o.o.o.o.o.o.o.o.o.o.o.o.G                                           ",
"                                              o.o.o.o.o.o.o.o.o.o.o.o.o.o.o.o.o.o.o.} a                                         ",
"                                              o.o.o.o.o.o.o.o.o.o.o.o.o.o.o.o.o.o.o.o.N                                         ",
"                                            o.o.o.o.o.o.o.o.o.o.o.o.o.o.o.o.o.o.o.o.o.H q                                       ",
"                                            o.o.o.o.o.o.o.o.o.o.o.o.o.o.o.o.o.o.o.o.o.o.q                                       ",
"                                            o.o.o.o.o.o.o.o.o.o.o.o.o.o.o.o.o.o.o.o.o.o.a                                       ",
"                                          ' o.o.o.o.o.o.o.o.o.o.o.o.o.o.o.o.o.o.o.o.o.} z a                                     ",
"                                          o.o.2 o ; o.o.o.o.o.o.o.o.o.o.o.o.o.o.o.o.o.o.b 0                                     ",
"                                          o.o.O . . o.o.o.o.o.o.o.o.o.o.o.o.o.o.o.o.o.o.M q                                     ",
"                                          o.o.# . + o.o.o.o.o.o.o.o.o.o.o.o.o.o.o.o.o.o.c q                                     ",
"                                          i U L k J o.o.o.o.o.o.o.o.o.o.o.o.o.o.o.o.o.o.f 8                                     ",
"                                        1 1 1 I o.o.o.o.o.o.o.o.o.o.o.o.o.o.o.o.o.o.o.o.0 q                                     ",
"                                      1 1 1 1 t o.o.o.o.o.o.o.` o.o.o.o.o.` o.o.o.o.o.E 0 0                                     ",
"                                    1 1 1 1 1 1 o.o.o.o.o.o.' ` o.o.o.o./ ` o.o.o.o.] C 0                                       ",
"                                    1 1 1 1 1 y o.o.o.o.o.o.o.Y ' o.o.o.N / o.o.o.o.] d 0                                       ",
"                                          1 u ` o.o.o.o.o.o.o.o.H o.o.` f ` o.o.o.o.F 0 0                                       ",
"                                              ' o.o.o.o.o.o.o.o.Y M C j B o.o.o.o.! 0 0                                         ",
"                                              L o.o.o.o.o.o.o.o.o.Y S S ` o.o.` ` z 0 7                                         ",
"                                                o.o.o.o.o.o.o.o.o.o.o.o.o.o.o.+.z 8 q #                                         ",
"                                                & Q o.` o.o.o.` o.o.+.` o.o.Y f 0 0 *                                           ",
"                                                  $ M Q o.o.o.` o.o.+.+.Y M 8 q 0 %                                             ",
"                                                      4 f N S F S Z M q 8 q 8 4                                                 ",
"                                                          ; 5 q q q q 8 5 ;                                                     ",
"                                                                                                                                ",
"                                                                                                                                ",
"                                                                                                                                ",
"                                                                                                                                ",
"                                                                                                                                ",
"                                                                                                                                ",
"                                                                                                                                ",
"                                                                                                                                ",
"                                                                                                                                ",
"                                                                                                                                ",
"                                                                                                                                ",
"                                                                                                                                ",
"                                                                                                                                ",
"                                                                                                                                ",
"                                                                                                                                ",
"                                                                                                                                "
};
