/* XPM */
static char *_6bfa75f4b4d497df2d7118504ae6e7eRKGB3TGVdW18KX2d[] = {
/* columns rows colors chars-per-pixel */
"64 64 97 2 ",
"   c None",
".  c black",
"X  c #010100",
"o  c #0E0C02",
"O  c #231E06",
"+  c #41370B",
"@  c #5E5010",
"#  c #61510F",
"$  c #625211",
"%  c #736213",
"&  c #746313",
"*  c #766513",
"=  c #847017",
"-  c #897417",
";  c #8D7818",
":  c #E77C23",
">  c #E67D23",
",  c #E87B23",
"<  c #E87C22",
"1  c #E87D22",
"2  c #E87C23",
"3  c #9E851B",
"4  c #A0871B",
"5  c #A78E1D",
"6  c #AF931E",
"7  c #AF951F",
"8  c #B99D1F",
"9  c #BC9F1F",
"0  c #B89C20",
"q  c #B99D20",
"w  c #BB9E21",
"e  c #BC9F20",
"r  c #BD9F20",
"t  c #BD9E21",
"y  c #BCA020",
"u  c #BDA120",
"i  c #BDA021",
"p  c #BEA021",
"a  c #BFA021",
"s  c #BEA121",
"d  c #C69921",
"f  c #CC9922",
"g  c #DC9E24",
"h  c #E99024",
"j  c #E89425",
"k  c #C0A321",
"l  c #C1A322",
"z  c #C2A522",
"x  c #C3A522",
"c  c #C4A622",
"v  c #C6A822",
"b  c #C7A923",
"n  c #CFAF23",
"m  c #CDAE24",
"M  c #CEAE24",
"N  c #D0B024",
"B  c #D1B125",
"V  c #D2B225",
"C  c #D3B325",
"Z  c #D4B325",
"A  c #D5B325",
"S  c #D3B425",
"D  c #D4B425",
"F  c #D6B526",
"G  c #D7B626",
"H  c #D8B625",
"J  c #D8B726",
"K  c #DCBA26",
"L  c #DEBC27",
"P  c #EAAE27",
"I  c #E0BE27",
"U  c #E0BE28",
"Y  c #E3C128",
"T  c #E4C128",
"R  c #E7C328",
"E  c #E7C329",
"W  c #E7C429",
"Q  c #E8C429",
"!  c #E8C529",
"~  c #E9C529",
"^  c #EAC629",
"/  c #EAC729",
"(  c #EBC729",
")  c #EBC72A",
"_  c #ECC729",
"`  c #ECC72A",
"'  c #EDC72A",
"]  c #EBC829",
"[  c #EBC82A",
"{  c #ECC829",
"}  c #EDC829",
"|  c #ECC929",
" . c #EDCA29",
".. c #ECC82A",
"X. c #EDC82A",
"o. c #ECC92A",
"O. c #EDC92A",
/* pixels */
"                                                                                                                                ",
"                                                                                                                                ",
"                                                                                                                                ",
"                                                                                                                                ",
"                                                                                                                                ",
"                                                                                                                                ",
"                                                                                                                                ",
"                                                                                                                                ",
"                                                                                                                                ",
"                                                                                                                                ",
"                                                                                                                                ",
"                                                                                                                                ",
"                                                                                                                                ",
"                                                                                                                                ",
"                                                                                                                                ",
"                                                                  {                                                             ",
"                                                            ..    ..    {                                                       ",
"                                                              {   ..  {                                                         ",
"                                                                { { ..                                                          ",
"                                                                ..{ {                                                           ",
"                                                          ` ` ....{ ....{                                                       ",
"                                                      [ { ........{ ..........                                                  ",
"                                                    [ ..{ ......................                                                ",
"                                                  [ { ............................S                                             ",
"                                                ..................................!                                             ",
"                                              ......................................A                                           ",
"                                              ......................................[ a                                         ",
"                                            ......................................{ { B                                         ",
"                                            ..........................................L a                                       ",
"                                          { ............................................a                                       ",
"                                          { { ......................................[ [ v y                                     ",
"                                          { ........................................{ [ N a                                     ",
"                                        ..........................................! = B B a                                     ",
"                                        { ......................................) + X o S a                                     ",
"                                        { ......................................) O X X B a                                     ",
"                                        ........................................` 5 @ ; B a                                     ",
"                                        ..........................................! J E g > 2                                   ",
"                                        { ............................................P 2 2 2 2                                 ",
"                                          ............................! ............{ h 2 2 2 2 2                               ",
"                                          ................T ..........U ..........{ { j 2 2 2 2 2                               ",
"                                          ` ................U { ....{ B ............[ f 2 2 2 2 >                               ",
"                                          { ................K Y ....M A ............B a d                                       ",
"                                            ..................M B v z ! ........[ Y a a t                                       ",
"                                            a ..................L G ! ..........W z y q                                         ",
"                                              J ` { ..........................T z s a $                                         ",
"                                                M T ..........{ ......[ ..[ G s s s &                                           ",
"                                                  0 J T ....{ { ......! J z y s q $                                             ",
"                                                    * w z B S S A B c a a a y 3                                                 ",
"                                                        % 3 w a a a a t 0 -                                                     ",
"                                                                                                                                ",
"                                                                                                                                ",
"                                                                                                                                ",
"                                                                                                                                ",
"                                                                                                                                ",
"                                                                                                                                ",
"                                                                                                                                ",
"                                                                                                                                ",
"                                                                                                                                ",
"                                                                                                                                ",
"                                                                                                                                ",
"                                                                                                                                ",
"                                                                                                                                ",
"                                                                                                                                ",
"                                                                                                                                "
};
