/* XPM */
static char *c7c7893e73534945a79b5597f924e0a18R4r0DcT9hkaYDGT[] = {
/* columns rows colors chars-per-pixel */
"64 64 79 1 ",
"  c None",
". c #645511",
"X c #746313",
"o c #7D6915",
"O c #897418",
"+ c #8B7418",
"@ c #8E7819",
"# c #A1891B",
"$ c #A1891C",
"% c #A3891C",
"& c #A88D1D",
"* c #B1951E",
"= c #B69A1F",
"- c #B99D20",
"; c #BC9F20",
": c #BDA020",
"> c #BDA120",
", c #BDA021",
"< c #BFA020",
"1 c #BEA021",
"2 c #BEA121",
"3 c #BFA121",
"4 c #BFA221",
"5 c #C0A221",
"6 c #C1A321",
"7 c #C1A322",
"8 c #C2A422",
"9 c #C5A722",
"0 c #C6A822",
"q c #C7A822",
"w c #C7A923",
"e c #CAAA23",
"r c #CAAB23",
"t c #CBAC23",
"y c #CCAC23",
"u c #CCAD23",
"i c #CEAE24",
"p c #CEAF24",
"a c #CFAF24",
"s c #CFB024",
"d c #D0B124",
"f c #D1B125",
"g c #D3B325",
"h c #D4B325",
"j c #D4B425",
"k c #D6B525",
"l c #D7B625",
"z c #D7B626",
"x c #D8B726",
"c c #D9B826",
"v c #DBB926",
"b c #DCBA26",
"n c #DDBB27",
"m c #DFBD27",
"M c #DFBE27",
"N c #E0BE27",
"B c #E0BD28",
"V c #E0BE28",
"C c #E1BE28",
"Z c #E4C128",
"A c #E5C228",
"S c #E6C328",
"D c #E7C328",
"F c #E7C429",
"G c #E8C529",
"H c #E9C529",
"J c #EAC729",
"K c #EBC729",
"L c #EBC72A",
"P c #ECC729",
"I c #ECC72A",
"U c #EBC829",
"Y c #EBC82A",
"T c #ECC829",
"R c #EDC829",
"E c #EDC929",
"W c #ECC82A",
"Q c #EDC82A",
"! c #EDC92A",
/* pixels */
"                                                                ",
"                                                                ",
"                                                                ",
"                                                                ",
"                                                                ",
"                                                                ",
"                                                                ",
"                                                                ",
"                                                                ",
"                                                                ",
"                                                                ",
"                                                                ",
"                                                                ",
"                                                                ",
"                                R                               ",
"                                W                               ",
"                            RR  W RU                            ",
"                             YWUWWV                             ",
"                           IWWUWWKs9uV                          ",
"                         LRWWWWWWjwZWWI                         ",
"                        LWWWWWWWRjRWWWWYv                       ",
"                       UWWWWWWWWKLWWWWWWKt                      ",
"                      RRWWWWWWWWWWWWWWWWUM                      ",
"                     WRUWWWWWWWWWWWWWWWYRRe                     ",
"                     RYWWWWWWWWWWWWWWWWWWWn,                    ",
"                    WWWWWWWWWWWWWWWWWWWWWWL7                    ",
"                    WWWWWWWWWWWWWWWWWWWWWWUs7                   ",
"                    WWWWWWWWWWWWWWWWWWWWWWWc,                   ",
"                   RWWWWWWWWWWWWWWWWWWWWWWWF,                   ",
"                   WWWWWWWWWWWWWWWWWWWWWWWWW,                   ",
"                   WWWWWWWWWWWWWWWWWWWWWWWWW,,                  ",
"                   WWWWWWWWWWWWWWWWWWWWWWWWR,,                  ",
"                  RYWWWWWWWWWWWWWWWWWWWWWWWW,f                  ",
"                  YRWWWWWWWWWWWWWWWWWWWWWWWW,Z                  ",
"                  WWRYWWWWWWWWWWWWWWWWWWWWIKuWU                 ",
"                 RWYRWWWWWWWWWWWWWWWWWWWYRIMVRK                 ",
"                 RYWWWWWWWWWWWWWWWWWWWWWWWWnWWR                 ",
"                  URRWWWWWWWWWWWWWWWWWWWWWWrfKW                 ",
"                   WWWWWWWWWWWWWWWWWWWWWWWZ,,                   ",
"                    WWWWWWWWWWWWWWWWWWWWWWu,,                   ",
"                    WWWWWWWWWWWWWWWWWWWWWM;,                    ",
"                    WWWWWWWWWWWWWWWWWWWWK7,,                    ",
"                     VWWWWWWWWWWWWWWWWKKe,,X                    ",
"                      KWWWWWWWWWWWWWWLZw;,$                     ",
"                      .xLLLWWWWWWWIRKz,,,$                      ",
"                        -zZWWWWWWYZf7,,;O                       ",
"                         +-8tusur7;-;,&                         ",
"                           o%-,,,,;-@                           ",
"                                                                ",
"                                                                ",
"                                                                ",
"                                                                ",
"                                                                ",
"                                                                ",
"                                                                ",
"                                                                ",
"                                                                ",
"                                                                ",
"                                                                ",
"                                                                ",
"                                                                ",
"                                                                ",
"                                                                ",
"                                                                "
};
